<svg width="1207" height="1215" viewBox="0 0 1207 1215" fill="none" xmlns="http://www.w3.org/2000/svg">
<path d="M39.8745 634.947C39.8745 634.947 40.0892 634.223 39.3641 634.008C39.3641 634.008 39.1495 634.732 39.8745 634.947Z" fill="black"/>
<path d="M1185.52 328.105C1184.58 328.614 1182.19 328.693 1181.25 329.202C1175.94 341.802 1171 358.451 1166.92 372.206C1159.92 398.481 1148.35 424.19 1133.59 447.377C1121.78 465.926 1108.22 482.382 1093.72 499.347C1082.26 514.062 1070.37 530.224 1053.16 537.721C1048.46 540.265 1030.23 545.885 1026.01 541.484C1020.56 535.929 1038.09 516.713 1042.7 511.782C1067.59 483.722 1091.19 460.005 1107.51 426.255C1107.94 424.807 1108.88 424.298 1109.31 422.85C1115.78 409.017 1123.19 394.675 1129.14 379.903C1133.3 368.536 1138.89 349.715 1142.32 338.132C1145.97 325.826 1144.49 317.512 1140.25 305.227C1137.32 296.483 1133.66 287.524 1130.73 278.779C1126.79 268.157 1122.11 257.32 1117.22 247.207C1115.18 243.452 1113.35 238.972 1110.59 235.001C1097.83 211.528 1080.75 194.649 1056.01 184.952C1040.49 178.774 1030.96 165.708 1017.02 156.849C1014.06 161.486 1014.09 169.37 1014.63 178.193C1015.68 187.955 1017.67 197.208 1018.34 202.92C1019.98 216.008 1022.35 229.311 1020.87 242.262C1019.27 258.324 1014.33 274.974 1011.06 291.33C1001.16 338.01 986.692 384.125 971.503 430.025C964.982 449.355 959.886 482.497 933.007 480.038C927.016 465.661 928.194 451.046 928.648 436.217C929.101 421.388 935.06 406.616 939.139 392.862C945.364 371.869 952.315 351.091 959.991 330.528C961.708 324.736 964.151 319.16 965.868 313.369C987.149 249.587 1000.24 184.164 1005.87 117.314C1006.43 112.755 1006.48 107.258 1007.04 102.7C1008.62 78.7536 1005 56.413 990.947 37.2834C986.945 32.1588 981.789 28.2669 977.787 23.1423C967.608 12.2479 959.308 0.33582 947.249 -9.54076C926.113 -26.0471 900.011 -33.7878 877.935 -49.7853C863.702 -60.3069 846.729 -66.9152 829.328 -72.0757C817.002 -75.731 802.716 -80.7553 788.968 -76.9566C788.863 -65.9619 795.498 -53.756 797.782 -42.8401C800.873 -29.3225 803.964 -15.8049 807.054 -2.28736C814.204 32.123 824.898 65.2217 833.927 98.6143C848.331 156.44 883.571 207.844 874.883 269.061C870.217 300.755 852.5 328.578 846.169 360.566C844.103 370.192 845.371 400.495 832.053 402.846C822.064 404.609 822.518 389.78 821.55 382.405C820.205 370.98 821.465 358.753 818.67 346.898C816.17 336.706 814.825 325.281 814.716 315.01C816.32 277.683 817.118 237.754 813.002 201.093C810.446 175.133 806.44 148.743 802.219 123.076C796.519 89.0962 793.987 49.7546 785.684 16.5771C778.562 -9.94923 769.614 -40.9551 755.19 -64.1342C739.826 -86.8045 713.533 -107.203 686.411 -116.821C683.51 -117.681 681.335 -118.326 679.16 -118.971C633.992 -131.579 581.601 -138.452 537.272 -119.308C537.272 -119.308 537.272 -119.308 536.547 -119.523C523.095 -114.062 520.357 -110.148 526.777 -97.2186C535.239 -80.533 545.714 -67.9758 558.149 -54.0497C579.018 -31.3221 599.672 -7.87061 617.507 17.1075C641.171 51.6899 668.379 84.9606 687.344 122.087C699.164 146.069 706.285 172.596 707.901 199.065C710.028 226.472 701.064 251.379 701.23 277.418C701.368 295.573 705.937 317.404 699.845 335.287C698.128 341.078 694.746 347.163 687.576 347.4C682.072 347.342 681.991 344.956 679.439 340.261C670.037 324.084 665.038 303.7 660.121 285.703C654.612 264.38 649.613 243.997 644.105 222.674C633.301 179.304 610.711 141.102 596.363 99.0445C586.046 69.9953 571.031 43.4905 562.593 13.4235C561.277 9.88288 560.175 5.61831 559.583 2.29267C551.308 -23.0008 538.629 -44.0871 521.386 -65.7396C501.886 -90.4239 477.044 -110.392 445.222 -117.466C431.017 -120.104 416.382 -121.294 401.103 -120.312C378.655 -119.093 356.798 -114.549 337.412 -107.697C327.719 -104.271 321.06 -103.096 328.043 -94.7242C334.005 -88.2306 339.753 -81.0131 345.716 -74.5195C371.016 -48.1151 394.57 -23.8035 409.614 10.5853C427.425 48.9449 444.081 88.5372 462.617 127.112C483.194 169.442 505.436 211.478 515.166 258.467C518.042 272.709 523.308 286.872 522.855 301.701C521.838 321.088 519.157 340.77 518.14 360.158C517.257 376.435 504.883 399.542 488.231 381.215C471.068 361.949 466.847 336.283 460.532 312.359C456.931 297.902 454.055 283.661 451.179 269.419C445.937 241.875 444.965 213.234 437.334 185.769C430.427 158.519 422.796 131.054 416.829 103.295C411.749 80.5241 408.254 55.073 397.75 34.6317C385.93 10.6499 371.936 -13.9771 354.477 -34.9057C344.002 -47.4629 335.407 -61.0378 322.623 -71.1294C313.546 -77.7592 301.998 -86.6968 290.692 -88.4743C281.777 -90.3306 272.084 -86.9047 263.331 -83.9875C243.219 -77.3506 221.31 -67.3092 203.24 -56.9165C191.749 -50.086 179.747 -44.1945 166.51 -39.4569C155.877 -35.522 140.25 -30.7056 131.658 -23.015C113.751 -7.84892 152.15 -4.33692 162.301 -1.32665C186.739 6.70793 209.726 14.3125 228.338 34.0083C252.403 59.2588 270.91 89.9493 287.028 120.719C301.104 147.732 319.449 173.649 326.651 202.562L343.689 267.47C346.484 279.324 356.076 308.159 340.959 313.914C331.266 317.34 318.616 304.138 313.082 296.196C303.037 282.191 301.02 265.054 297.123 248.935C292.42 230.214 288.442 211.708 282.074 193.281C275.707 174.853 270.064 156.641 263.697 138.214C259.666 125.205 254.696 112.706 248.786 100.715C241.56 85.183 231.3 71.9019 218.945 60.3625C203.61 45.5763 186.18 32.5318 168.321 20.9351C157.068 13.6602 147.48 6.09152 134.644 1.49727C121.082 -3.31201 110.96 1.5618 99.7642 10.0551C89.5082 18.0395 80.2729 27.9018 72.7024 37.4702C66.501 45.0819 57.6425 58.9936 58.477 69.4794C64.1154 66.4262 72.6824 72.117 78.2682 74.5611C95.5359 82.8322 106.388 99.4389 116.729 115.107C132.093 137.777 146.732 160.232 163.975 181.885C170.744 190.98 231.366 271.175 195.652 269.247C180.802 268.781 167.48 249.867 159.476 239.618C144.407 218.61 132.373 195.352 113.545 176.38C102.131 164.332 89.266 151.854 76.697 141.038C67.1092 133.469 59.6439 132.043 50.6233 141.181C40.663 150.829 32.2622 171.177 32.963 184.773C33.4208 191.209 36.9935 197.782 41.2101 202.183C44.1914 205.429 51.3083 210.69 50.5307 215.973C48.546 227.985 21.3179 229.361 13.0749 233.217C2.52318 239.539 -2.4954 253.802 1.53503 266.81C9.3812 293.552 39.0843 315.749 65.4821 325.153C87.5295 333.266 110.193 331.324 132.374 336.326C141.289 338.183 166.881 344.984 150.261 355.807C138.77 362.638 121.368 357.477 109.123 356.209C95.9387 355.449 82.673 352.302 68.7633 351.328C54.8535 350.353 40.7291 350.102 28.3221 344.06C15.19 337.803 10.0862 328.414 1.35713 317.949C3.67015 336.749 3.2976 353.965 8.51084 373.625C13.5094 394.009 24.4705 420.887 42.84 433.422C52.6425 440.267 66.8479 442.905 79.8179 444.388C87.4979 445.091 95.1778 445.793 101.193 446.789C135.538 450.674 169.344 445.736 203.365 440.073C211.689 438.604 220.953 436.626 230.002 435.372C251.644 431.552 274.307 429.609 294.742 432.519C318.078 436.289 314.752 458.142 298.429 470.628C281.38 482.898 252.702 483.844 232.939 486.647C207.967 491.055 182.914 493.076 158.505 492.925C124.537 493.09 90.5159 498.752 57.3253 493.635C44.57 491.427 35.5736 487.184 26.2005 478.892C20.0233 473.122 13.7651 464.966 6.00412 461.877C4.71606 466.22 5.17381 472.656 4.61081 477.215C4.77287 481.988 4.72024 487.485 4.8823 492.259C5.7736 518.513 11.6593 543.885 22.5393 568.376C27.7242 580.152 31.3252 594.608 40.9941 604.564C43.4649 606.872 45.9358 609.18 49.3464 610.979C59.5783 616.376 72.3336 618.583 82.6991 620.87C100.53 624.582 118.575 627.571 137.265 628.388C162.184 629.477 182.886 626.166 207.563 620.095C233.179 613.516 259.09 608.599 283.175 599.203C301.836 592.136 319.476 583.191 338.352 575.4C356.288 568.118 373.499 560.621 392.456 555.217C404.324 552.436 428.919 543.978 437.514 557.553C452.664 580.947 404.523 607.624 390.05 611.208C361.829 618.59 331.405 617.443 302.727 618.39C270.719 619.923 241.559 627.815 211.54 638.601C178.917 650.191 144.386 654.914 110.632 654.355C98.1726 653.811 84.9069 650.664 73.3059 647.224C67.5055 645.504 42.2095 640.365 39.6576 635.67C41.3508 643.26 43.044 650.851 45.6769 657.932C60.7494 700.205 77.2236 769.671 124.863 784.586C147.125 791.975 176.261 797.465 199.272 791.688C228.218 784.521 258.399 778.508 285.813 768.524C322.92 755.114 358.201 737.224 392.756 719.119C419.794 705.086 447.8 698.427 476.96 690.536C490.493 687.461 522.687 677.319 522.047 700.756C520.95 717.757 500.113 724.179 487.467 732.243C443.891 759.486 396.876 777.046 349.942 796.992C322.823 808.639 294.469 819.132 266.626 830.564C254.113 835.517 241.387 841.193 228.364 845.207C220.55 847.615 210.266 847.716 202.748 851.787C195.955 856.073 193.594 864.036 193.193 873.367C192.792 882.699 195.291 892.891 196.259 900.266C200.318 921.159 208.513 944.066 221.754 960.594C231.719 972.212 246.329 986.783 260.267 995.642C263.463 998.165 267.599 1000.18 271.224 1001.25C287.257 1008.37 308.36 995.728 323.691 989.249C385.742 963.547 438.687 923.331 488.866 879.144C511.391 859.047 535.877 840.319 560.362 821.59C583.694 804.095 595.667 790.319 627.541 791.896C633.046 791.953 635.25 800.483 635.922 806.195C637.514 846.045 576.432 879.123 549.127 899.378C499.43 936.619 439.473 960.579 386.285 993.635C371.76 1002.72 355.732 1016.86 348.619 1032.87C341.506 1048.87 343.576 1060.51 349.648 1077.28C357.037 1097.58 362.384 1114.13 381.693 1126.16C382.928 1127.31 384.378 1127.74 386.339 1129.11C405.648 1141.14 430.758 1154.89 452.562 1155.84C500.011 1158.1 540.601 1106.34 568.226 1074.37C591.019 1048.05 611.851 1020.36 635.368 994.259C642.51 986.138 649.865 977.294 656.496 968.234C661.758 961.131 666.294 953.813 670.106 946.281C677.729 931.215 683.606 914.056 693.19 900.359C700.25 889.852 719.093 852.912 733.728 854.101C749.303 854.782 738.593 877.596 734.352 886.577C716.53 925.395 696.022 962.629 675.003 998.925C661.689 1022.54 653.236 1048.39 641.587 1071.71C629.427 1094.09 616.38 1111.49 600.299 1131.13C586.527 1148.31 572.755 1165.49 556.298 1181.09C547.707 1188.78 527.543 1200.91 524.538 1211.05C548.302 1213.37 572.148 1218.08 596.099 1211.79C633.583 1202.43 672.088 1194.95 702.131 1170.78C748.713 1133.41 762.72 1080.85 777.585 1025.41C781.664 1011.65 785.957 997.176 790.761 983.637C795.78 969.374 801.524 955.326 806.327 941.786C809.629 933.315 812.849 922.456 818.029 912.967C822.781 904.925 828.767 898.037 838.971 895.55C857.713 890.87 858.041 921.682 860.917 935.924C866.292 960.357 868.338 985.378 871.109 1010.61C874.981 1040.12 860.46 1070.46 836.189 1088.47C818.201 1101.25 803.647 1102.44 783.536 1109.08C794.387 1125.69 822.126 1125.25 839.07 1123.97C895.109 1118.54 947.143 1086.72 982.257 1042.79C993.076 1030.25 1002.15 1015.61 1009.56 1001.27C1014.74 991.779 1017.96 980.92 1021.18 970.062C1023.11 963.546 1024.53 956.092 1025.74 949.362C1030.65 924.828 1039.18 901.37 1038.08 875.84C1037.21 857.47 1037 836.928 1030.63 818.501C1026.6 805.492 1018.3 793.58 1016.15 779.554C1011.63 752.225 980.214 757.084 959.025 746.075C947.343 740.248 894.276 706.397 921.314 692.363C962.018 672.144 982.28 747.459 1022.83 743.732C1043.1 741.868 1064.45 736.385 1084.56 729.748C1087.16 728.945 1089.98 727.419 1093.31 726.831C1106.55 722.093 1119.49 715.693 1132.22 710.016C1141.4 705.651 1151.31 701.502 1160.7 696.413C1163.52 694.886 1165.62 693.144 1168.44 691.618C1179.2 684.572 1192.2 672.674 1199.47 661.443C1202.64 656.082 1204.06 648.628 1205.48 641.174C1205.83 637.34 1205.96 634.229 1206.1 631.118C1206.31 630.394 1206.53 629.671 1205.8 629.455C1205.51 627.793 1206.15 625.621 1205.86 623.958C1206.82 610.068 1206.84 596.686 1206.87 583.305C1206.65 562.763 1208.09 541.928 1206.43 520.956C1204.08 494.272 1205.29 466.277 1205.55 438.79C1205.36 426.133 1204.95 414.199 1204.04 401.326C1203.96 398.94 1203.88 396.553 1203.07 393.951C1202.69 389.902 1202.1 386.576 1201.51 383.25C1198.69 363.512 1192.83 346.023 1185.52 328.105ZM612.691 650.456C606.408 655.681 600.422 662.569 593.119 665.916C588.635 667.737 578.942 671.162 576.256 669.578C574.887 671.535 568.361 669.6 566.401 668.231C564.44 666.862 564.145 665.199 563.339 662.598C561.941 656.67 561.994 651.173 563.711 645.382C569.455 631.334 581.939 618.497 594.88 612.096C605.003 607.223 624.174 601.095 628.286 616.49C632.02 627.836 622.222 642.257 612.691 650.456ZM590.719 482.49C584.571 484.604 573.156 472.556 568.939 468.155C563.702 461.876 561.498 453.347 559.295 444.818C555.398 428.699 554.831 411.992 562.454 396.926C568.493 384.541 581.301 381.251 590.541 392.654C600.505 404.273 600.509 425.538 602.446 440.288C603.495 450.05 601.429 459.676 598.638 469.087C598.29 472.921 597.808 479.866 590.719 482.49ZM723.548 702.233C715.548 713.249 704.057 720.079 693.963 732.837C684.565 737.926 673.207 741.646 670.117 728.128C667.751 714.826 682.625 701.91 690.195 692.342C697.551 683.497 711.027 664.654 725.018 668.016C743.574 671.944 730.608 691.725 723.548 702.233ZM683.041 495.692C679.816 485.285 681.667 476.383 683.223 465.818C684.993 454.53 689.153 443.162 693.098 432.519C695.755 426.219 697.472 420.428 702.6 416.435C707.514 413.167 711.273 411.132 716.644 414.3C722.74 417.683 725.292 422.377 727.925 429.458C731.364 439.142 733.138 449.118 735.637 459.31C738.137 469.502 739.186 479.264 735.455 489.184C731.939 498.38 726.329 509.317 718.892 515.775C714.919 518.534 709.925 519.416 704.286 522.469C694.484 515.624 686.05 506.823 683.041 495.692ZM806.257 721.248C807.225 728.623 800.38 738.406 796.998 744.491C793.615 750.576 791.306 753.042 786.904 757.249C782.634 758.346 781.05 761.026 779.438 755.823C776.886 751.128 778.174 746.785 779.463 742.442C781.476 738.313 782.978 733.246 784.991 729.117C787.73 725.204 790.978 722.23 794.227 719.255C798.63 715.048 804.268 711.995 806.257 721.248ZM822.519 530.754C818.574 541.398 817.152 548.852 804.129 552.866C797.47 554.041 793.306 544.143 793.359 538.646C794.136 533.363 795.854 527.572 797.357 522.505C799.933 513.818 802.294 505.855 805.595 497.383C807.098 492.316 809.245 485.077 812.198 480.44C817.459 473.337 825.22 476.426 827.639 484.231C832.394 497.455 827.108 517.939 822.519 530.754ZM903.644 552.45C904.827 559.101 902.761 568.727 900.104 575.027C897.876 579.879 891.89 586.767 888.641 589.741C876.959 583.914 881.897 567.265 886.138 558.284C888.151 554.156 890.298 546.917 894.996 544.372C899.185 540.889 902.757 547.461 903.644 552.45Z" fill="black"/>
<path d="M1057.18 367.225C1060.61 355.643 1063.11 344.569 1065.82 332.772C1063.11 344.569 1060.4 356.366 1057.18 367.225Z" fill="black"/>
<path d="M981.159 636.867C1012.68 621.013 1040.63 598.587 1062.19 571.114C1036.49 596.573 1005.78 615.028 971.49 626.912C992.46 617.379 1010.15 602.937 1024.86 585.248C1003.63 601.002 979.328 611.122 953.417 616.039C975.512 597.39 993.821 572.892 1005.09 545.52C992.824 557.632 979.024 566.929 964.284 576.733C1002.19 544.66 1035.29 504.859 1062.08 462.4C1032.98 486.059 1001.11 505.748 966.985 522.405C997.405 502.286 1019.31 470.979 1033.97 437.522C1043.74 415.218 1050.82 391.329 1056.96 367.949C1043.23 414.279 1021.72 457.519 990.932 494.854C1008.52 470.141 1019.28 441.83 1026.42 412.444C1033.55 383.058 1036.63 354.044 1040.87 323.798C1029.63 359.054 1026.14 397.4 1009.31 430.212C995.355 456 974.791 477.466 952.99 497.778C966.896 477.487 976.155 454.244 978.675 429.789C973.79 440.941 967.67 450.94 960.824 460.723C958.167 467.023 954.06 472.893 949.146 476.161C940.636 486.239 931.615 495.377 921.359 503.362C925.6 494.381 928.902 485.909 931.692 476.498C930.08 471.295 928.683 465.367 928.735 459.87C923.984 467.912 917.997 474.8 911.796 482.411C927.2 435.788 936.079 387.229 940.392 338.104C936.67 390.555 916.782 438.999 886.662 482.046C910.9 434.892 922.007 381.481 921.379 327.74C912.715 375.575 898.761 422.629 881.396 467.883C899.992 402.517 909.162 334.356 904.718 266.882C899.684 337.058 879.8 406.767 844.313 467.912C863.314 414.479 872.164 358.037 869.28 301.264C862.094 357.413 847.658 411.412 822.346 462.185C830.533 442.561 834.154 422.371 834.875 401.32C833.935 401.829 832.78 403.062 831.33 402.632C830.391 403.141 829.665 402.926 828.94 402.711C824.675 425.073 818.235 446.79 808.169 467.432C820.835 424.722 823.136 379.725 813.997 336.062C811.697 381.058 803.381 425.058 788.326 467.847C801.473 418.192 802.081 365.605 790.82 315.8C789.03 361.735 779.56 406.968 764.289 450.481C781.625 397.342 785.911 340.333 777.092 284.951C775.464 335.66 769.056 386.527 758.298 436.103C766.156 385.667 761.554 334.686 745.084 286.485C744.177 316.144 743.485 345.078 743.303 374.952C742.355 332.93 734.962 291.359 719.756 252.197C723.847 302.239 722.434 352.224 713.851 402.446C718.436 368.365 714.401 334.091 703.493 301.716C704.113 312.926 704.008 323.92 700.787 334.779C700.573 335.503 700.143 336.95 699.929 337.674C696.174 360.975 691.694 384.061 685.764 406.717C690.11 386.742 691.342 366.63 689.458 346.383L688.733 346.168C683.228 346.11 683.147 343.724 680.381 339.753C678.262 354.876 676.144 369.999 671.85 384.477C674.665 361.685 674.365 338.757 669.796 316.925C666.357 307.242 663.858 297.05 661.144 287.582C659.135 312.976 657.555 336.922 654.821 362.101C656.988 320.215 651.475 277.626 637.209 237.955C638.639 273.032 638.108 306.74 635.698 341.466C636.897 292.205 626.147 243.338 604.763 198.406C611.431 239.761 614.044 281.49 610.937 323.884C604.804 270.086 591.287 217.249 569.527 168.267C579.39 212.146 582.595 257.2 579.569 301.981C578.969 256.124 567.87 211.092 546.864 170.21C552.644 206.577 558.935 243.883 559.936 280.407C560.722 317.656 556.003 354.847 541.859 389.243C548.109 354.869 544.289 319.871 533.809 286.048C539.995 334.349 530.687 384.355 508.462 427.381C514.072 416.443 516.271 403.707 515.141 391.558C509.397 405.606 500.458 417.131 489.558 427.288C493.503 416.644 494.629 407.527 493.069 396.826C492.158 405.219 487.621 412.537 480.614 417.547C483.619 407.413 483 396.203 481.225 386.226C479.804 393.68 476.207 400.489 471.885 407.083C474.595 395.285 473.464 383.137 469.005 371.576C467.02 383.588 463.8 394.447 459.13 404.875C461.783 377.31 459.656 349.902 454.414 322.358C451.113 330.83 445.341 336.994 438.629 343.666C449.95 289.531 447.066 232.759 431.373 179.276C437.936 231.627 434.214 284.077 419.911 334.965C430.937 279.168 425.367 220.811 403.015 168.504C417.715 227.993 415.982 289.696 400.043 348.762C408.76 295.43 401.391 240.478 377.027 192.299C384.043 229.82 385.849 268.947 381.426 307.801C379.47 327.698 375.124 347.673 360.546 362.251C371.065 326.78 375.784 289.589 372.608 252.419C371.62 279.691 366.067 306.396 356.888 332.027C352.513 344.118 346.689 355.779 335.197 362.61C341.237 350.224 344.886 337.918 345.635 324.752C341.557 338.506 332.617 350.031 320.186 357.37C322.681 346.297 323.511 335.517 322.891 324.307C321.336 334.872 316.155 344.362 309.014 352.482C312.368 338.513 311.667 324.917 307.851 311.184C308.042 323.842 305.117 336.363 298.057 346.87C298.478 302.891 288.615 259.013 270.294 219.715C279.27 258.605 281.802 297.946 279.339 338.169C274.069 302.741 261.201 268.997 241.753 238.816C252.233 272.638 257.932 306.618 261.027 341.402C248.697 316.481 236.152 292.284 221.942 268.381C230.218 293.674 238.923 317.52 248.352 341.581C229.955 321.161 212.067 301.68 193.669 281.26C209.973 303.422 226.062 326.307 242.58 347.745C217.122 337.832 192.819 326.687 169.159 313.37C190.081 330.6 213.74 343.917 239.413 353.106C212.829 352.31 187.399 350.282 160.949 346.376C190.462 355.915 218.953 363.577 249.11 370.945C216.163 372.988 183.859 372.859 151.26 371.067C187.647 378.708 224.381 382.513 261.331 385.595C226.318 397.264 188.457 402.575 151.293 400.217C195.412 403.062 238.644 400.919 282.224 394.942C254.218 401.6 227.877 407.965 200.086 413.899C235.719 413.44 271.271 410.595 306.232 404.424C278.522 412.745 251.966 419.834 223.45 425.553C259.889 427.696 296.247 427.453 333.464 424.313C328.551 427.582 323.852 430.126 318.214 433.179C326.323 432.434 333.707 431.473 342.541 430.943C332.5 438.203 321.948 444.525 311.826 449.399C311.397 450.847 310.967 452.294 310.538 453.742C324.071 450.668 337.094 446.654 350.627 443.579C312.689 467.769 270.964 486.11 226.229 493.32C271.904 485.601 317.282 476.219 362.284 462.787C320.345 481.853 277.303 496.653 232.139 505.311C275.209 498.395 317.258 489.601 359.441 477.696C310.465 493.887 260.173 506.537 209.075 516.586C265.921 513.754 323.034 504.702 376.923 485.243C321.102 511.217 262.648 530.11 202.42 539.026C270.948 542.022 339.071 533.085 404.184 513.016C343.851 532.927 282.12 546.911 219.206 554.243C271.649 555.619 325.299 550.265 376.02 536.167C339.047 546.466 301.777 555.103 263.702 561.138C327.717 558.07 394.953 544.144 456.064 518.951C444.816 532.941 428.625 542.316 411.038 545.764C436.601 544.681 462.808 541.427 487.189 533.694C475.697 540.524 464.421 546.631 452.714 554.185C469.792 549.799 485.714 546.645 501.852 542.768C489.421 550.107 478.44 557.876 466.009 565.216C478.897 564.313 490.336 562.98 502.419 559.475C472.429 578.146 443.297 593.921 411.05 609.56C443.378 596.308 474.551 584.288 506.664 571.76C464.538 599.433 419.35 621.472 371.825 638.093C420.533 628.123 467.2 614.398 513.194 594.96C466.503 622.067 416.669 641.154 363.987 653.883C422.254 643.598 479.044 624.999 531.454 597.225C475.528 634.194 413.262 660.62 346.671 672.375C422.178 662.476 495.696 643.325 564.969 611.889C517.071 645.726 461.679 670.253 403.707 682.201C457.438 679.234 510.497 670.554 561.137 654.069C561.271 650.959 561.405 647.848 562.988 645.167C568.732 631.119 581.216 618.283 594.157 611.882C604.28 607.008 623.451 600.88 627.563 616.276C630.868 629.07 621.07 643.49 612.478 651.181C606.196 656.406 600.209 663.294 592.906 666.641C588.422 668.461 578.729 671.887 576.043 670.303C574.889 671.536 568.149 670.325 566.188 668.956C564.228 667.587 563.932 665.924 563.126 663.322C562.32 660.72 562.239 658.334 562.373 655.223C528.676 670.432 494.388 682.316 457.762 688.781C468.047 688.68 479.056 688.795 489.341 688.695C496.94 687.01 505.989 685.756 512.729 686.967C558.055 683.083 603.138 672.038 645.373 654.635C607.087 682.66 565.739 705.05 520.818 720.869C550.784 715.579 579.944 707.688 608.003 695.532C565.905 731.089 517.254 756.827 464.224 773.391C512.636 761.758 559.437 744.922 603.175 722.453C567.493 749.674 530.495 773.355 490.731 793.065C552.219 771.922 610.563 742.758 664.1 705.867C635.401 741.461 599.934 767.958 557.78 787.747C623.003 777.949 685.054 752.247 738.805 714.633C714.724 745.295 685.406 769.678 651.361 788.722C679.286 779.677 704.954 767.6 730.031 752.197C712.906 783.346 686.488 808.59 654.456 823.505C687.16 814.302 717.742 798.957 745.557 779.641C715.972 810.245 681.66 835.51 643.775 854.203C684.426 839.481 723.976 820.495 759.739 795.66C724.004 828.379 686.229 857.342 645.768 884.721C702.127 867.57 752.334 831.267 787.582 784.228C782.702 816.646 774.41 847.265 760.829 877.102C795.032 841.567 816.451 795.939 824.604 747.166C832.155 772.244 836.805 796.462 837.697 822.716C845.291 799.767 847.381 776.759 844.906 753.186C858.877 791.194 865.249 830.887 864.236 871.54C875.671 848.942 879.855 824.193 876.359 798.742C897.18 848.232 906.642 901.442 903.43 954.832C916.177 914.508 918.64 874.285 909.583 833.009C919.632 868.279 924.177 903.492 923.513 940.311C936.77 900.926 942.777 859.392 940.164 817.663C946.779 864.516 949.339 911.742 941.83 958.344C959.519 922.636 967.782 884.133 962.135 844.656C974.87 881.51 980.517 920.988 974.859 958.688C1009.32 895.666 1008.02 814.947 973.099 751.824C968.024 750.319 962.948 748.814 958.813 746.8C947.131 740.973 894.064 707.122 921.101 693.088C944.38 681.09 961.113 701.803 978.705 719.621C1026.55 712.547 1072.93 697.159 1115.21 674.259C1076.31 691.074 1035.2 699.359 993.55 698.822C1043.49 690.006 1090.13 668.396 1129.49 636.753C1091.23 651.395 1052.51 659.602 1011.96 663.329C1058.85 648.88 1102.29 624.747 1138.24 591.305C1094.23 619.995 1044.91 640.021 992.788 648.192C1046.89 628.009 1095.09 595.834 1135.79 554.35C1092.83 592.803 1039.26 621.809 981.159 636.867ZM599.58 468.579C598.292 472.922 597.81 479.867 590.722 482.49C584.573 484.605 573.158 472.556 568.941 468.156C563.704 461.877 561.5 453.348 559.297 444.819C555.4 428.7 554.833 411.992 562.456 396.927C568.495 384.542 581.303 381.252 590.543 392.655C600.507 404.273 600.512 425.539 602.448 440.289C604.437 449.542 602.371 459.168 599.58 468.579ZM723.55 702.234C715.55 713.25 704.059 720.08 693.965 732.838C684.567 737.927 673.21 741.647 670.119 728.129C667.753 714.827 682.627 701.911 690.197 692.343C697.553 683.498 711.029 664.655 725.02 668.017C743.576 671.944 730.61 691.726 723.55 702.234ZM683.043 495.693C679.818 485.286 681.669 476.384 683.225 465.819C684.995 454.531 689.155 443.163 693.1 432.52C695.757 426.22 697.475 420.428 702.603 416.436C707.516 413.168 711.275 411.132 716.646 414.3C722.742 417.683 725.294 422.378 727.927 429.459C731.366 439.142 733.14 449.119 735.64 459.311C738.139 469.503 739.188 479.265 735.457 489.185C731.942 498.38 726.332 509.318 718.895 515.775C714.921 518.535 709.927 519.416 704.288 522.47C694.486 515.625 686.052 506.823 683.043 495.693ZM806.259 721.249C807.227 728.624 800.382 738.407 797 744.492C793.618 750.577 791.309 753.043 786.906 757.25C783.147 759.286 781.053 761.027 779.44 755.824C776.889 751.129 778.177 746.786 779.465 742.442C781.478 738.314 782.981 733.247 784.994 729.118C787.732 725.205 790.98 722.23 794.229 719.256C798.632 715.049 804.27 711.995 806.259 721.249ZM822.521 530.755C818.576 541.399 817.154 548.853 804.132 552.866C797.472 554.042 793.308 544.144 793.361 538.646C794.139 533.364 795.856 527.573 797.359 522.505C799.935 513.819 802.296 505.856 805.598 497.384C807.1 492.317 809.247 485.078 812.2 480.44C817.462 473.338 825.222 476.427 827.641 484.232C832.396 497.456 827.11 517.94 822.521 530.755ZM903.647 552.451C904.829 559.102 902.764 568.728 900.106 575.028C897.879 579.88 891.892 586.768 888.643 589.742C876.961 583.915 881.899 567.265 886.14 558.285C888.153 554.156 890.3 546.917 894.998 544.373C899.187 540.89 902.759 547.462 903.647 552.451Z" fill="black"/>
<path d="M59.3575 574.569C106.997 589.484 157.05 590.939 206.268 581.909C159.387 596.358 110.517 601.554 62.0472 597.419C83.9326 600.759 104.797 602.221 127.112 604.113C101.2 609.03 75.4224 610.836 49.5634 610.255C46.1528 608.456 43.6819 606.149 41.211 603.841C31.5422 593.885 27.9411 579.429 22.7563 567.653C11.8762 543.162 5.99054 517.79 5.09923 491.536C24.3275 501.176 45.5688 506.687 66.7291 509.812C93.3942 512.995 121.133 512.557 148.361 511.181C113.347 522.85 76.9367 528.591 40.7123 525.724C83.1139 534.361 127.071 532.433 169.254 520.528C132.79 531.766 96.165 538.231 58.0084 541.879C101.994 547.835 145.736 546.631 188.51 538.052C153.497 549.72 117.597 556.4 81.105 559.754C123.64 565.28 165.933 563.646 208.492 555.791C158.925 568.656 109.411 576.024 59.3575 574.569Z" fill="black"/>
<path d="M147.13 672.267C201.668 671.902 256.391 662.928 307.675 644.272C285.847 656.7 263.937 666.741 239.261 672.812C279.297 668.146 318.231 659.215 357.004 645.511C322.61 668.39 283.409 683.541 242.514 691.103C287.196 689.39 331.206 681.965 374.032 667.888C329.999 688.695 283.842 703.359 235.482 709.494C283.871 711.243 332.016 705.832 379.193 693.045C328.848 711.193 278.127 725.291 226.008 733.462C256.432 734.609 285.54 732.215 315.801 728.588C257.777 746.033 196.447 750.685 136.806 741.661C160.919 740.149 184.736 736.974 208.177 729.749C185.944 730.244 164.569 727.843 143.327 722.331C165.48 719.45 186.182 716.138 208.55 712.533C166.687 712.72 126.541 707.115 86.2339 696.737C124.929 701.911 163.033 703.76 202.211 701.99C176.566 700.686 152.076 698.148 127.291 693.948C153.741 697.855 179.815 697.711 205.431 691.132C183.412 690.902 165.419 682.416 147.13 672.267Z" fill="black"/>
<path d="M396.446 898.203C367.905 917.304 338.263 932.14 305.64 943.73C337.486 937.422 367.29 927.359 397.013 914.91C360.74 938.806 320.599 954.466 278.764 962.537C312.866 959.261 345.437 953.169 377.846 942.303C347.989 957.864 317.541 970.098 284.245 975.976C303.874 976.284 322.912 973.266 341.358 966.923C315.179 978.061 288.919 986.813 262.364 993.901C247.7 984.827 233.815 970.471 223.85 958.853C210.609 942.325 202.414 919.418 198.356 898.526C197.173 891.874 194.888 880.958 195.289 871.626C263.922 863.628 330.862 848.039 395.169 825.368C350.868 852.396 301.974 870.974 251.305 879.575C316.742 869.053 379.842 853.113 441.249 829.583C393.728 867.469 339.061 892.211 280.364 903.944C350.071 892.326 416.553 870.3 479.086 837.653C427.51 875.912 371.126 906.445 309.852 926.865C340.033 920.852 368.898 911.298 396.446 898.203Z" fill="black"/>
<path d="M443.62 1005.13C499.145 977.488 549.862 942.124 595.127 901.206C578.779 927.073 559.235 950.417 535.26 970.084C572.42 951.177 605.578 927.144 634.949 897.264C604.962 937.2 564.1 973.911 522.189 1000.86C556.825 985.143 589.206 966.393 620.055 944.826C564.696 998.502 498.351 1038.68 424.189 1060.01C446.099 1049.96 466.263 1037.83 483.149 1020.79C458.421 1032.35 433.825 1040.81 408.291 1049.78C439.034 1039.21 467.441 1023.22 491.846 1002.1C454.82 1017.9 415.752 1029.94 376.522 1037.21C399.829 1033.09 422.435 1015.38 443.62 1005.13Z" fill="black"/>
<path d="M66.059 243.417C94.231 262.797 126.94 274.86 160.13 279.978C142.032 282.486 126.243 282.529 107.983 280.264C134.462 292.055 161.799 300.949 190.639 304.776C158.417 307.034 127.187 303.286 96.4387 292.592C104.738 304.504 117.441 312.209 130.788 317.742C144.135 323.275 159.065 326.128 173.271 328.766C115.027 325.669 58.0959 304.848 12.3321 267.65C34.9709 279.089 58.6831 286.908 83.7644 292.771C65.6906 281.898 50.8654 268.051 39.5033 250.506C57.4961 258.992 74.5492 267.987 92.542 276.473C84.1086 267.671 70.5188 254.978 66.059 243.417Z" fill="black"/>
<path d="M283.715 -75.5796C351.073 -15.4385 396.282 68.8493 410.8 158.212C396.963 117.093 377.998 79.9658 354.978 43.2117C372.064 81.3563 382.572 123.063 388.514 164.203C376.475 119.68 357.563 77.0559 332.797 38.2089C350.527 74.1818 363.129 114.147 372.105 153.037C356.818 111.488 336.832 72.4831 311.422 35.8079C326.118 74.0313 335.819 113.136 341.762 154.277C328.459 100.715 305.464 50.5798 274.736 5.23924C281.561 30.1027 287.876 54.0273 294.487 79.6147C283.899 35.5212 257.468 -3.03185 221.588 -30.9988C235.874 -25.9745 249.302 -18.0546 258.112 -5.20355C250.375 -21.6741 240.545 -36.4029 225.8 -47.8635C252.494 -36.7971 275.805 -19.6457 289.8 4.98121C281.176 -16.4778 270.673 -36.919 256.625 -56.0486C274.833 -48.2864 289.873 -35.163 299.785 -18.0474C292.048 -34.5179 283.667 -48.8168 271.957 -62.5279C283.505 -53.5902 293.174 -43.6348 299.594 -30.7049C294.247 -47.2543 294.996 -60.4207 283.715 -75.5796Z" fill="black"/>
<path d="M777.678 126.037C759.434 67.86 750.239 8.4285 709.279 -42.309C735.685 9.62546 751.244 66.2187 755.364 124.145C731.372 58.7504 702.895 -4.82388 671.6 -66.8715C684.522 -38.625 692.02 -8.04916 698.792 22.3117C686.272 -15.2667 667.898 -49.0678 644.826 -80.3245C658.205 -45.6418 666.59 -10.0775 673.095 26.5046C658.614 -12.4427 640.374 -49.3545 617.65 -84.4457C627.672 -57.0594 634.874 -28.1463 640.626 0.336632C625.071 -34.9911 605.543 -67.5595 580.377 -97.0746C587.04 -76.9845 593.193 -57.8334 600.071 -38.4673C586.558 -70.0394 564.802 -97.7555 538.214 -119.816C581.604 -138.452 633.994 -131.578 679.162 -118.971C681.337 -118.326 684.238 -117.466 686.413 -116.821C748.643 -52.6873 782.575 37.7071 777.678 126.037Z" fill="black"/>
<path d="M833.025 8.56464C856.612 62.0258 873.835 118.325 885.125 176.015C886.891 143.461 883.877 111.065 877.023 78.3171C890.24 108.226 899.617 137.784 905.961 169.593C910.923 139.562 909.869 108.535 901.217 79.1915C913.332 104.836 922.037 128.682 926.554 156.011C928.749 122.009 926.165 88.165 914.316 56.299C925.545 76.9553 936.048 97.3965 942.793 119.873C935.748 74.4682 922.555 31.1775 902.488 -10.2138C903.108 0.9959 903.003 11.9906 904.348 23.4153C895.214 1.01742 883.26 -19.8539 868.273 -38.4746C871.363 -24.957 875.179 -11.2244 878.27 2.2932C868.654 -13.1596 858.098 -28.1034 848.482 -43.5562C856.757 -18.2627 864.012 5.15297 872.287 30.4465C861.274 9.06635 847.226 -10.0633 831.514 -28.899C840.915 -12.7223 846.047 4.55094 849.515 22.1181C844.464 7.23151 835.439 -4.8956 823.38 -14.7722C827.759 -5.59799 829.156 0.329382 833.025 8.56464Z" fill="black"/>
<path d="M1105.62 363.476C1106.66 330.707 1103.22 299.759 1095.21 268.244C1099.73 295.573 1098.52 323.569 1089.85 350.138C1092.48 314.688 1088.87 278.966 1079.33 244.635C1080.95 271.104 1079.67 296.713 1074.33 322.694C1069.35 288.929 1064.46 257.55 1059.49 223.785C1059.87 249.1 1056.41 274.064 1050.05 298.168C1049.67 272.853 1046.17 247.401 1039.35 222.538C1042.65 235.332 1041.1 245.896 1037.45 258.203C1035.54 230.071 1027.18 202.391 1013.91 177.979C1013.16 169.88 1013.34 161.272 1016.29 156.634C1030.23 165.493 1039.77 178.559 1055.29 184.737C1080.02 194.435 1097.1 211.314 1109.86 234.787C1111.91 238.543 1113.73 243.022 1116.5 246.993C1118.09 286.843 1114.39 325.912 1105.62 363.476Z" fill="black"/>
<path d="M1201.73 382.527C1202.16 381.079 1202.8 378.908 1202.51 377.245C1202.45 382.742 1203.13 388.455 1203.29 393.228C1204.5 407.763 1204.77 422.808 1205.98 437.343C1205.72 464.83 1204.73 492.101 1206.86 519.509C1208.74 539.757 1207.3 560.592 1207.3 581.858C1207.28 595.239 1207.25 608.621 1206.29 622.511C1184.38 632.552 1162.09 638.544 1137.84 643.167C1156.29 636.824 1173.72 628.603 1189.1 616.627C1157.07 631.542 1123.34 638.867 1088.01 640.988C1123.31 630.983 1154.24 611.803 1179.43 585.406C1163.91 600.493 1144.6 609.732 1122.45 612.613C1143.13 601.418 1160.31 586.036 1174 566.47C1149.3 585.922 1121.75 599.016 1091.65 607.417C1121.13 587.807 1145.67 563.581 1165.78 535.679C1153.59 550.178 1138.63 560.707 1120.19 567.05C1147.28 547.519 1168.83 520.047 1181.91 489.27C1160.83 509.797 1136.26 526.139 1110.17 539.664C1138.06 522.735 1158.68 495.771 1168.42 465.582C1150.03 487.693 1127.94 506.343 1101.54 518.205C1137.14 488.597 1166.78 452.495 1189.09 411.856C1194.99 402.581 1199.66 392.153 1201.73 382.527Z" fill="black"/>
<path d="M757.026 927.166C755.656 929.123 754.798 932.018 753.429 933.975C754.798 932.018 756.167 930.062 757.026 927.166Z" fill="black"/>
<path d="M818.89 910.072C813.924 918.837 810.704 929.696 807.188 938.892C801.445 952.94 796.641 966.479 791.622 980.742C780.722 990.898 771.782 1002.42 766.764 1016.69C758.015 1040.87 763.767 1069.35 748.921 1090.15C755.066 1066.77 756.431 1043.55 754.17 1019.25C754.284 1050.79 743.817 1080.76 724.569 1105.77C732.727 1078.26 736.83 1051.12 737.308 1022.91C729.365 1049.7 720.697 1076.27 708.618 1101.04C713.332 1042.58 730.588 987.056 755.818 933.896C750.719 945.772 749.03 959.448 750.67 972.535C759.93 949.291 779.77 927.61 800.577 913.304C784.039 926.514 775.638 946.862 776.367 968.342C784.472 946.331 800.043 925.747 818.89 910.072Z" fill="black"/>
<path d="M1022.04 967.167C1018.82 978.025 1015.09 987.945 1010.42 998.373C1003.01 1012.72 993.937 1027.35 983.118 1039.89C970.553 1050.34 956.538 1060.36 940.992 1067.57C959.92 1054.28 975.572 1036.08 985.127 1014.5C963.408 1037.2 938.627 1054.26 910.649 1068.81C956.963 1037.65 991.701 989.672 1006.86 935.888C1010.33 953.456 1004.96 971.553 995.675 986.913C1004.56 980.885 1012.94 973.918 1022.04 967.167Z" fill="black"/>
<path d="M1153.4 678.495C1162.42 669.357 1169.48 658.85 1173.85 646.758C1158.04 660.183 1142.44 672.883 1126.63 686.308C1128.43 682.903 1130.44 678.775 1131 674.216C1106.95 691.497 1081.36 705.96 1054.24 717.607C1070.38 713.73 1085.52 715.858 1101.66 711.981C1089.23 719.32 1075.99 724.058 1061.52 727.642C1078.6 723.255 1095.46 719.593 1112.97 713.758C1103.78 718.123 1095.33 722.703 1085.93 727.792C1088.53 726.989 1091.35 725.463 1094.68 724.875C1107.92 720.137 1120.86 713.737 1133.59 708.06C1142.77 703.696 1152.68 699.546 1162.08 694.457C1179.47 678.352 1194.4 659.939 1206.64 639.942C1206.99 636.108 1207.12 632.997 1207.26 629.886C1190.15 647.654 1172.03 663.544 1153.4 678.495Z" fill="black"/>
<path d="M665.353 933.057C664.308 944.561 661.087 955.42 657.867 966.278C651.236 975.338 643.881 984.182 636.74 992.303C613.222 1018.41 592.39 1046.09 569.597 1072.41C541.973 1104.39 501.382 1156.14 453.933 1153.88C432.129 1152.93 407.234 1138.46 387.71 1127.16C432.874 1118.5 476.345 1102.25 515.008 1078.27C501.074 1090.68 482.575 1102.52 465.364 1110.02C499.142 1097.2 528.192 1079.03 552.65 1052.42C541.401 1066.41 529.428 1080.19 515.709 1091.87C546.343 1071.03 572.546 1046.51 592.787 1015.5C590.506 1025.85 586.776 1035.77 579.635 1043.89C606.186 1015.53 627.366 984.01 642.665 948.381C639.392 964.737 635.824 979.43 628.926 994.711C646.538 977.882 659.933 956.652 665.353 933.057Z" fill="black"/>
<path d="M229.708 433.71C220.659 434.964 211.395 436.942 203.072 438.411C169.776 444.289 135.244 449.012 100.899 445.127C94.6696 444.855 86.9897 444.153 79.5244 442.726C68.0572 436.175 56.8046 428.9 46.9211 419.669C57.878 425.281 70.2039 428.936 81.8048 432.377C74.5543 430.226 69.3978 426.335 63.006 421.289C83.818 428.248 105.274 433.036 127.67 437.315C114.833 432.721 104.091 426.385 93.993 417.877C116.336 427.653 139.753 433.81 164.243 436.347L163.947 434.684C149.527 432.771 135.455 427.023 123.907 418.085C146.088 423.088 168.188 425.704 190.288 428.32C181.158 427.187 172.457 424.607 164.4 419.855C185.427 426.091 206.883 430.879 229.708 433.71Z" fill="black"/>
<path d="M256.42 128.18C262.654 149.718 265.558 171.844 266.073 194.048C260.779 172.002 253.605 150.973 243.102 130.531C250.733 157.997 256.189 184.817 259.766 212.655C246.812 155.259 215.33 101.819 171.15 61.94C185.733 68.6271 196.556 77.3497 208.185 88.6741C185.49 61.4669 160.485 36.7253 132.017 15.6821C162.498 32.597 189.73 52.4863 215.164 75.7801C200.687 58.0983 185.996 41.1404 170.364 24.6914C189.888 35.9943 207.828 49.9777 223.674 65.7028C222.868 63.1011 221.123 61.0082 220.316 58.4065C232.456 70.6698 242.716 83.9508 250.157 98.7585C256.067 110.749 260.823 123.973 265.068 136.258C261.657 134.459 259.401 131.427 256.42 128.18Z" fill="black"/>
<path d="M543.496 -20.5919C562.032 17.9827 573.909 57.7327 581.301 99.3032C569.773 55.7187 550.002 15.9902 522.713 -19.6673C542.484 20.0612 558.711 61.1014 573.059 103.159C562.097 76.2818 547.673 53.1026 528.765 31.744C545.984 66.7779 559.874 102.4 570.005 140.057C533.225 43.3049 475.179 -45.5772 400.676 -118.863C415.955 -119.845 431.529 -119.164 444.795 -116.018C476.106 -109.883 501.674 -89.6993 520.959 -64.2911C537.477 -42.8537 550.156 -21.7674 559.156 3.74117C554.563 -4.70911 549.03 -12.6505 543.496 -20.5919Z" fill="black"/>
<path d="M730.659 122.332C755.615 173.836 771.603 228.982 776.877 285.675C779.826 259.773 780.385 233.949 779.279 208.419C790.803 230.738 795.453 254.956 796.049 279.547C796.822 252.999 794.481 226.315 787.87 200.728C796.413 219.8 803.291 239.166 807.35 260.059C801.918 219.858 797.936 180.086 792.504 139.885C795.031 157.961 793.638 173.299 789.721 191.826C786.039 174.983 782.142 158.864 777.95 141.081C778.517 157.789 778.574 173.557 777.691 189.834C773.122 168.002 766.888 146.464 759.499 126.159C763.262 145.389 764.636 164.698 762.679 184.594C756.579 159.946 745.217 142.4 730.659 122.332Z" fill="black"/>
<path d="M1005.87 117.314C1000.24 184.164 987.151 249.588 965.87 313.37C973.436 282.536 976.223 251.86 977.049 219.815C970.637 249.416 963.715 278.078 957.303 307.679C957.38 288.8 957.242 270.645 957.104 252.49C952.329 273.914 944.624 286.593 936.438 306.217C940.189 261.65 936.985 216.596 927.121 172.718C938.054 191.711 946.167 212.231 949.286 233.633C948.261 210.49 946.297 187.855 942.667 165.515C952.069 181.691 959.08 197.947 962.119 216.962C958.89 185.289 956.468 156.219 953.239 124.546C963.661 142.601 971.264 162.182 975.538 182.351C973.569 138.451 967.841 96.5866 958.274 54.371C967.732 86.3158 976.68 117.322 987.078 148.758C989.864 118.081 988.596 87.7779 981.609 58.141C988.916 76.0593 994.263 92.6087 998.026 111.839C1000.06 94.3288 1000.52 79.4996 999.44 61.8537C1004.36 79.8508 1005.95 98.4357 1005.87 117.314Z" fill="black"/>
<path d="M1142.11 338.857C1138.67 350.439 1133.09 369.261 1128.93 380.628C1123.7 395.615 1115.56 409.742 1109.1 423.575C1108.67 425.022 1108.45 425.746 1107.3 426.979C1097.98 434.455 1088.15 440.991 1077.09 446.374C1089.95 437.587 1100.05 424.829 1106.01 410.057C1096.56 420.643 1086.08 429.351 1073.14 435.752C1087.37 425.008 1097.9 410.802 1105.01 394.798C1092.31 408.358 1077.87 419.826 1063.64 430.57C1087.61 410.903 1106.13 385.681 1117.84 356.861C1127.53 332.17 1131.41 305.758 1130.52 279.504C1133.45 288.248 1137.1 297.207 1140.03 305.951C1144.28 318.236 1145.76 326.55 1142.11 338.857Z" fill="black"/>
<path d="M915.11 678.71C921.689 675.148 927.542 671.371 933.905 668.533C938.604 665.988 944.242 662.935 949.156 659.667C954.069 656.398 958.982 653.13 963.896 649.862C968.809 646.593 973.722 643.325 978.421 640.781C983.334 637.512 988.248 634.244 993.671 631.915C1003.5 625.378 1013.11 619.565 1023.23 614.692C1028.66 612.362 1033.35 609.818 1038.78 607.488C1044.2 605.159 1049.63 602.83 1055.05 600.5C1065.39 594.902 1075.94 588.581 1084.53 580.89C1088.72 577.407 1093.12 573.2 1097.52 568.993C1101.93 564.785 1105.6 560.363 1109.28 555.941C1117.36 547.311 1124.72 538.467 1130.11 528.253C1123.99 538.252 1115.91 546.881 1107.32 554.572C1102.92 558.779 1099.24 563.201 1095.05 566.685C1090.65 570.892 1086.46 574.375 1081.55 577.644C1072.45 584.395 1062.11 589.993 1051.99 594.867C1046.56 597.196 1041.35 598.802 1035.93 601.131C1030 602.521 1024.57 604.851 1019.15 607.18C1008.3 611.839 997.965 617.437 987.628 623.034C982.929 625.579 977.291 628.632 972.592 631.176C967.168 633.506 962.255 636.774 957.342 640.042C952.428 643.311 947.005 645.64 942.306 648.185C937.607 650.729 932.184 653.058 926.76 655.388C916.637 660.261 906.3 665.859 896.822 668.561L886.59 663.164C888.818 658.312 891.046 653.46 894.213 648.099C896.012 644.694 897.81 641.29 900.119 638.824C902.642 635.635 904.655 631.506 906.454 628.102C910.051 621.293 913.862 613.76 917.245 607.675C920.627 601.59 925.674 595.211 929.996 588.617L956.438 549.992C965.592 537.743 975.471 525.709 986.076 513.89C991.123 507.511 995.955 501.856 1001 495.477C1006.05 489.098 1010.37 482.504 1014.69 475.911C1024.06 462.938 1031.98 449.535 1039.39 435.193C1042.99 428.384 1046.07 420.636 1048.94 413.612C1051.82 406.588 1054.18 398.625 1057.77 391.816C1064.46 377.259 1070.93 363.426 1075.43 348.224C1070.2 363.211 1063.01 376.829 1055.6 391.171C1052 397.98 1048.92 405.728 1046.04 412.752C1043.17 419.776 1039.58 426.585 1035.98 433.394C1028.78 447.012 1019.42 459.985 1010.26 472.234C1005.21 478.613 1001.11 484.483 996.06 490.861C991.228 496.517 986.181 502.895 980.624 508.335C970.019 520.154 958.904 531.034 948.81 543.792L920.408 581.048C915.361 587.427 910.529 593.082 905.992 600.4C901.67 606.994 897.858 614.527 893.751 620.397C891.953 623.801 889.644 626.267 887.121 629.456C884.597 632.646 882.799 636.05 880.275 639.24C877.322 643.877 874.155 649.238 871.927 654.09L869.752 653.445L860.03 648.987L837.177 638.272L837.391 637.548C837.606 636.824 837.821 636.1 838.035 635.377C838.25 634.653 838.465 633.929 838.679 633.205L842.758 619.451C845.549 610.04 848.34 600.629 850.406 591.004C851.908 585.936 852.686 580.654 853.249 576.096C853.812 571.537 854.59 566.255 855.878 561.911C857.944 552.286 860.009 542.66 862.075 533.034C864.141 523.408 866.207 513.783 867.547 503.942C868.888 494.101 870.229 484.26 871.355 475.144C871.918 470.585 872.695 465.303 873.258 460.744C873.821 456.186 875.109 451.843 876.612 446.775C879.403 437.365 882.919 428.169 885.71 418.758C888.5 409.348 891.291 399.937 894.082 390.526C896.873 381.115 898.939 371.49 901.729 362.079C904.52 352.668 907.311 343.258 909.377 333.632C910.879 328.565 911.442 324.006 912.22 318.724C912.783 314.165 913.561 308.883 914.124 304.325C914.687 299.766 914.739 294.269 914.577 289.495C914.415 284.722 914.253 279.949 913.366 274.96C913.204 270.187 912.317 265.198 912.155 260.425C911.993 255.651 912.77 250.369 912.608 245.595C912.284 236.049 912.175 225.778 913.301 216.661L918.773 187.569L917.222 219.399C915.156 229.025 915.266 239.295 915.59 248.842C915.752 253.616 915.189 258.174 915.136 263.671C915.298 268.445 915.46 273.218 915.408 278.716C916.457 288.478 916.056 297.809 914.715 307.65C914.152 312.209 913.374 317.491 912.811 322.049C912.248 326.608 910.746 331.675 910.183 336.234C908.117 345.859 904.601 355.055 901.81 364.466C899.02 373.876 896.229 383.287 893.438 392.698C890.647 402.109 887.856 411.519 884.34 420.715C880.825 429.911 877.309 439.106 873.793 448.302C872.29 453.369 871.002 457.713 869.499 462.78C867.997 467.847 867.434 472.406 866.656 477.688C865.315 487.529 863.975 497.369 862.124 506.271C860.058 515.897 858.207 524.799 856.141 534.425C853.35 543.835 851.284 553.461 849.219 563.087C847.716 568.154 847.153 572.713 846.375 577.995C845.812 582.553 844.524 586.897 843.021 591.964C840.231 601.375 837.655 610.062 834.139 619.257L829.335 632.796C829.12 633.52 829.12 633.52 828.905 634.244L828.261 636.416C815.64 631.098 803.958 625.271 791.551 619.229C779.144 613.187 766.522 607.868 753.9 602.55C750.275 601.475 747.59 599.891 743.964 598.816C752.632 572.247 753.621 544.975 757.509 518.563C757.991 511.618 759.198 504.888 760.405 498.158C761.612 491.428 762.094 484.483 763.301 477.753C764.99 464.077 766.679 450.402 767.643 436.512C768.607 422.621 769.571 408.731 770.535 394.841C771.499 380.951 772.463 367.06 772.702 352.955C773.904 324.959 772.932 296.319 766.026 269.069C758.905 242.542 753.663 214.998 743.212 189.06C738.457 175.836 733.487 163.336 728.731 150.112C726.609 143.97 723.976 136.889 721.853 130.746C719.945 123.88 717.823 117.738 715.915 110.871C699.283 57.8975 672.743 9.07362 657.99 -44.9179C671.293 8.64358 697.403 58.9152 712.371 112.183C714.278 119.049 715.461 125.7 717.584 131.843C719.492 138.709 721.614 144.852 724.247 151.933C729.003 165.157 733.758 178.38 737.789 191.389C746.574 217.621 752.031 244.442 758.212 271.477C764.608 297.788 764.345 325.275 763.142 353.27C762.178 367.161 761.214 381.051 760.25 394.941C759.286 408.832 758.323 422.722 756.634 436.397C754.944 450.072 753.255 463.748 750.841 477.208C749.634 483.938 748.427 490.668 747.22 497.398C746.013 504.128 744.806 510.859 743.384 518.313C739.496 544.724 737.998 571.057 729.463 594.516C724.602 592.287 719.527 590.781 715.177 589.491C702.34 584.897 689.289 581.027 676.453 576.432C664.342 572.053 652.23 567.674 641.703 560.614C641.326 556.565 642.318 550.558 644.251 544.043C645.109 541.148 646.183 537.528 647.041 534.633C648.115 531.013 648.248 527.903 649.322 524.283C651.736 510.823 652.485 497.656 652.509 484.275C652.534 470.894 653.068 458.451 652.367 444.855C651.91 438.418 651.666 431.258 650.484 424.607C649.301 417.956 647.393 411.089 645.995 405.162C639.385 379.575 632.559 354.711 625.949 329.124C619.338 303.536 613.452 278.164 605.902 253.085C602.596 240.292 598.351 228.007 593.381 215.507C588.411 203.007 583.226 191.231 577.316 179.24C566.221 155.474 554.187 132.216 541.213 109.467C534.363 97.9844 528.239 86.7174 521.389 75.2353C518.327 69.6018 514.539 63.7533 510.537 58.6286C506.75 52.7801 502.533 48.3793 498.746 42.5308C491.682 31.7726 484.832 20.2906 477.768 9.53242C473.98 3.68388 470.703 -1.22574 466.916 -7.07428C463.854 -12.7078 460.792 -18.3413 459.609 -24.9926C460.792 -18.3413 463.854 -12.7078 466.701 -6.35039C469.764 -0.716863 473.551 5.13168 476.828 10.0413C483.678 21.5234 489.802 32.7904 496.866 43.5486C500.654 49.3971 504.656 54.5218 507.933 59.4314C511.72 65.2799 514.997 70.1895 518.059 75.823C524.184 87.0901 531.034 98.5722 537.158 109.839C549.193 133.097 560.502 156.14 571.382 180.631C576.567 192.407 581.537 204.907 585.997 216.468C590.242 228.752 594.487 241.037 597.792 253.831C604.618 278.694 609.564 304.576 615.449 329.948C621.335 355.32 627.946 380.908 633.832 406.28C635.014 412.931 636.412 418.859 637.809 424.786C638.267 431.222 638.939 436.935 639.397 443.371C639.588 456.028 638.838 469.195 638.089 482.361C637.34 495.528 636.805 507.97 633.881 520.492C633.022 523.387 632.889 526.498 632.03 529.393C631.171 532.289 630.312 535.185 629.239 538.804C628.38 541.7 627.307 545.319 626.233 548.939C626.019 549.663 625.804 550.386 625.59 551.11C618.768 547.512 611.437 542.975 604.615 539.377C580.741 526.784 555.498 516.148 532.349 503.77C526.252 500.387 520.881 497.219 515.51 494.051C510.139 490.883 504.983 486.991 498.376 482.669C486.399 475.18 474.717 469.353 463.249 462.802C460.564 461.218 458.093 458.91 455.407 457.326C457.607 444.59 456.262 433.165 454.702 422.464C453.143 411.763 450.858 400.847 449.299 390.146C446.394 368.021 442.55 346.404 437.041 325.081C426.748 282.651 411.461 241.102 394.08 201.294C385.026 181.283 375.973 161.272 366.705 141.985C356.712 122.482 345.78 103.489 333.693 85.7284C327.649 76.848 321.606 67.9677 314.837 58.8724C308.793 49.9921 301.085 41.4056 293.887 33.7581C278.766 18.248 261.551 4.47953 249.679 -14.005C261.551 4.47953 277.612 19.4807 292.733 34.9908C299.931 42.6384 306.914 51.0098 312.958 59.8902C319.001 68.7705 324.83 78.3747 330.874 87.255C342.021 105.525 352.954 124.518 362.007 144.529C371.06 164.54 379.388 184.337 387.716 204.133C404.158 244.449 417.27 285.353 426.623 328.292C431.407 349.4 434.526 370.802 436.92 391.988C438.265 403.413 439.824 414.114 440.659 424.6C441.412 432.699 442.166 440.798 441.469 448.467C437.548 445.729 433.627 442.991 429.492 440.977C417.299 434.211 404.892 428.169 392.996 423.066C380.589 417.024 368.692 411.921 356.285 405.879C344.603 400.052 333.35 392.777 322.313 384.778C311.275 376.779 300.022 369.505 286.675 363.971C285.95 363.756 285.225 363.541 284.5 363.326L285.225 363.541C285.679 348.712 283.742 333.962 280.141 319.505C276.54 305.049 269.18 292.628 263.485 279.913C260.637 273.556 258.515 267.413 256.392 261.271C254.485 254.404 252.577 247.538 251.394 240.887C248.303 227.369 244.487 213.637 239.007 200.198C237.69 196.657 236.159 193.84 234.843 190.3L230.464 181.126C227.616 174.768 224.769 168.411 221.921 162.053C216.226 149.339 209.591 137.133 201.291 125.22C193.717 113.523 184.262 102.844 174.808 92.1647C170.081 86.8251 165.354 81.4854 159.473 77.3785C154.531 72.7628 147.28 70.6125 142.553 65.2729C147.28 70.6125 154.316 73.4866 159.258 78.1024C164.2 82.7182 169.141 87.3339 173.654 93.3975C182.168 104.586 190.897 115.05 198.257 127.471C205.107 138.953 211.527 151.883 216.497 164.383C219.345 170.74 222.193 177.098 224.101 183.964L228.265 193.862C229.581 197.403 231.112 200.219 231.704 203.545C235.734 216.554 238.825 230.071 241.915 243.589C243.098 250.24 245.006 257.107 245.974 264.482C247.882 271.348 249.79 278.214 252.423 285.296C257.903 298.734 263.813 310.725 266.394 323.304C269.189 335.159 270.319 347.307 269.784 359.75C261.809 357.385 254.558 355.234 247.951 350.913C225.017 337.811 205.679 317.9 182.234 303.859C158.789 289.818 134.271 279.397 113.35 262.167C134.271 279.397 159.085 291.481 181.59 306.031C204.096 320.58 222.493 341 245.938 355.041C252.035 358.424 258.131 361.807 264.656 363.742C271.182 365.677 277.707 367.612 283.293 370.056C286.193 370.917 288.154 372.286 290.839 373.87C289.685 375.102 287.805 376.12 286.141 376.414C283.321 377.941 279.052 379.037 275.723 379.625L263.854 382.406C259.585 383.502 256.041 384.814 251.771 385.911C236.144 390.727 221.028 396.482 205.319 398.912C173.688 404.496 140.874 403.428 108.275 401.636C140.955 405.814 173.85 409.269 206.287 406.287C223.231 405.012 238.858 400.195 254.996 396.318C259.265 395.221 262.595 394.633 266.864 393.537L279.243 391.695C283.297 391.322 287.567 390.225 292.051 388.405C296.32 387.308 301.019 384.764 304.696 380.342C309.343 383.295 313.049 386.756 317.695 389.709C328.733 397.708 339.771 405.707 351.963 412.473C364.155 419.239 375.837 425.066 388.244 431.108C399.926 436.935 412.333 442.977 423.8 449.528C429.172 452.696 435.053 456.803 440.21 460.695C440.935 460.91 441.445 461.848 441.445 461.848C435.592 465.626 430.464 469.618 424.611 473.395C421.577 475.646 417.818 477.681 414.999 479.208C411.24 481.243 407.696 482.555 404.662 484.805C390.055 491.5 374.724 497.979 359.607 503.734C344.276 510.214 330.18 517.847 314.767 521.939C299.355 526.032 283.002 530.633 267.08 533.787C259.481 535.471 250.942 537.665 243.558 538.625C235.959 540.309 227.85 541.055 219.74 541.8C211.631 542.546 203.522 543.291 195.198 544.76C186.874 546.23 179.275 547.914 170.951 549.383C166.682 550.48 162.627 550.852 159.298 551.44C155.243 551.813 151.188 552.186 147.134 552.558L110.642 555.913C106.587 556.285 102.747 555.934 98.6926 556.307C90.798 556.328 82.0447 559.245 74.2837 556.156C77.6943 557.955 82.4741 557.798 86.5287 557.425C90.5833 557.052 94.638 556.68 98.4779 557.031C102.318 557.382 107.098 557.224 110.938 557.575L122.887 557.181L147.51 556.608C151.565 556.235 155.405 556.586 159.46 556.214C163.514 555.841 167.569 555.468 171.838 554.372C180.162 552.902 187.761 551.218 195.87 550.473C203.98 549.727 212.089 548.982 219.983 548.96C228.093 548.215 235.987 548.193 245.036 546.939C253.36 545.47 261.684 544 269.069 543.04C284.991 539.886 300.914 536.733 317.052 532.855C325.376 531.386 333.404 528.254 341.432 525.122C349.46 521.99 356.764 518.642 363.852 516.019C378.969 510.264 394.811 504.723 410.142 498.244C413.901 496.209 417.445 494.897 421.929 493.077C425.688 491.041 429.447 489.005 433.206 486.97C439.999 482.684 447.007 477.674 453.799 473.388L453.127 467.675C454.362 468.829 456.323 470.198 458.283 471.567C470.046 479.781 481.728 485.608 492.981 492.883C498.137 496.775 504.019 500.882 509.39 504.05C515.271 508.157 521.368 511.539 526.739 514.707C538.931 521.473 550.613 527.3 563.02 533.343C570.566 537.156 578.112 540.969 584.934 544.567C580.531 548.774 575.403 552.766 570.275 556.758C568.181 558.5 566.086 560.242 563.992 561.983C561.898 563.725 559.804 565.466 557.71 567.208C553.522 570.691 550.058 574.39 546.085 577.149C530.271 590.574 513.437 602.12 495.153 613.237C459.014 634.022 420.322 650.113 379.804 661.724C359.183 667.422 338.776 672.396 318.369 677.37C308.166 679.857 297.748 683.068 287.544 685.555C282.55 686.437 277.555 687.318 271.836 687.985C269.446 688.064 266.842 688.867 263.727 688.73C261.122 689.533 258.732 689.612 256.128 690.415C235.211 694.45 214.804 699.424 193.887 703.459C183.898 705.222 173.184 706.771 162.685 707.595C157.69 708.476 152.186 708.419 147.191 709.301C142.412 709.458 136.692 710.125 131.617 708.62C136.478 710.849 142.197 710.182 146.977 710.025C152.481 710.082 157.476 709.2 162.981 709.258C173.48 708.433 183.979 707.609 194.693 706.061C215.395 702.75 236.312 698.714 257.23 694.679C262.224 693.798 267.218 692.916 272.938 692.25C277.932 691.368 283.437 691.425 289.156 690.759C300.085 688.487 309.563 685.785 320.492 683.513C340.899 678.538 361.816 674.503 382.223 669.529C423.761 659.796 463.903 644.135 501.492 623.78C520.287 613.602 538.061 601.547 555.324 588.552C559.512 585.069 563.701 581.586 567.889 578.102C569.983 576.361 572.077 574.619 573.957 573.601C576.051 571.86 577.93 570.842 580.025 569.1C586.092 564.599 593.1 559.589 599.812 552.916C611.279 559.467 622.746 566.018 633.999 573.293C645.762 581.507 659.108 587.04 671.945 591.634C681.881 595.369 691.817 599.103 701.753 602.837C698.075 607.259 693.672 611.466 689.269 615.674L667.55 638.373L645.106 660.856C641.643 664.555 638.179 668.253 633.777 672.46C630.313 676.159 626.635 680.581 623.172 684.279C616.756 692.615 610.34 700.951 603.414 708.347C602.044 710.304 599.95 712.046 598.581 714.002C596.487 715.744 595.118 717.701 593.024 719.442C589.561 723.141 585.883 727.563 582.419 731.261C575.278 739.382 569.077 746.994 561.425 754.175C553.774 761.357 546.122 768.539 538.471 775.72C522.657 789.145 506.844 802.569 489.07 814.625C480.183 820.652 471.511 825.956 462.839 831.26L435.882 847.68C417.598 858.797 399.528 869.19 380.438 877.704C361.347 886.219 341.236 892.856 320.615 898.554C341.021 893.58 360.918 887.667 380.733 879.367C400.334 871.791 419.129 861.614 437.198 851.221L464.665 835.739C474.063 830.651 482.735 825.347 491.622 819.319C509.181 807.988 526.445 794.993 542.258 781.569C550.635 774.602 558.286 767.42 565.938 760.239C573.589 753.057 581.456 745.151 588.382 737.755C591.845 734.056 595.308 730.358 598.772 726.66C600.866 724.918 602.235 722.961 604.329 721.22C606.423 719.478 608.517 717.736 610.101 715.056C617.242 706.935 623.658 698.6 630.585 691.203C634.048 687.505 637.511 683.806 640.975 680.108C644.438 676.41 648.626 672.926 652.089 669.228L697.998 626.138C703.556 620.698 709.113 615.258 714.885 609.094C724.821 612.828 735.268 617.501 744.989 621.959C756.886 627.062 769.293 633.105 780.975 638.932C788.521 642.745 796.067 646.558 803.614 650.371C803.184 651.818 802.245 652.327 802.03 653.051C799.802 657.903 797.574 662.756 794.836 666.669C793.467 668.626 792.098 670.583 790.729 672.539L786.407 679.133C783.669 683.047 780.716 687.684 777.253 691.382L758.729 716.604C752.313 724.94 746.408 734.214 741.442 742.98L733.523 756.383C730.57 761.02 728.342 765.872 725.604 769.786C720.423 779.275 716.183 788.256 711.942 797.236C709.714 802.089 706.976 806.002 704.748 810.854C702.01 814.768 699.057 819.405 696.319 823.318C690.628 831.869 684.212 840.205 678.01 847.816C665.393 863.764 651.835 880.22 639.218 896.167L629.339 908.201C625.875 911.9 622.412 915.598 618.949 919.296C612.023 926.693 604.371 933.875 596.719 941.056C581.631 954.696 564.582 966.966 547.533 979.237C539.371 985.479 530.699 990.783 521.302 995.872C512.629 1001.18 503.232 1006.26 494.56 1011.57C503.232 1006.26 512.629 1001.18 521.812 996.811C531.21 991.722 539.882 986.418 548.554 981.114C565.388 969.568 582.437 957.297 598.976 944.088C607.138 937.845 614.789 930.664 621.715 923.267C625.179 919.568 628.642 915.87 632.32 911.448L642.924 899.629C656.267 883.897 670.12 869.103 683.677 852.647C690.093 844.311 696.509 835.976 702.71 828.364C705.449 824.451 709.127 820.029 712.079 815.391C715.032 810.754 717.985 806.117 719.998 801.988C725.179 792.499 729.42 783.518 734.386 774.753C739.352 765.987 745.043 757.436 750.009 748.671C755.7 740.12 761.391 731.569 766.867 723.743L785.901 699.46C789.364 695.761 792.317 691.124 795.78 687.426L800.827 681.047C802.196 679.09 803.565 677.133 805.149 674.453C808.102 669.816 810.33 664.963 812.557 660.111C812.987 658.663 813.926 658.154 814.356 656.707C814.356 656.707 814.356 656.707 815.081 656.922L851.577 674.833C852.302 675.048 852.302 675.048 853.027 675.263C851.658 677.219 849.778 678.237 848.409 680.194C846.101 682.659 844.731 684.616 843.148 687.297C841.564 689.977 839.98 692.658 839.121 695.553C836.679 701.13 835.176 706.197 833.163 710.325C830.935 715.178 828.707 720.03 826.265 725.606C817.139 745.739 810.189 766.517 803.238 787.295C800.232 797.43 796.287 808.073 794.007 818.423L785.501 849.766C782.495 859.9 779.275 870.759 775.545 880.679C771.814 890.598 768.084 900.518 763.413 910.946C758.958 920.651 754.502 930.355 749.832 940.784C745.376 950.488 741.431 961.132 737.7 971.051C733.97 980.971 730.025 991.614 726.294 1001.53C722.564 1011.45 717.893 1021.88 713.438 1031.59L706.754 1046.14C704.527 1051 702.299 1055.85 700.071 1060.7C695.615 1070.41 689.71 1079.68 683.079 1088.74C670.757 1106.35 655.75 1122.38 640.743 1138.4C655.75 1122.38 671.268 1107.29 684.314 1089.89C690.945 1080.83 696.636 1072.28 702.032 1062.07C704.259 1057.22 706.487 1052.36 708.715 1047.51L715.398 1032.96C719.854 1023.25 725.249 1013.04 728.98 1003.12C733.435 993.414 737.381 982.77 741.111 972.85C744.842 962.931 749.512 952.502 753.967 942.798C758.423 933.093 763.604 923.604 768.274 913.175C772.73 903.471 777.4 893.042 781.13 883.123C785.076 872.479 788.806 862.56 792.026 851.701L801.982 820.788C804.988 810.654 808.933 800.01 812.664 790.091C819.614 769.312 827.075 749.473 836.712 730.279C838.939 725.427 841.167 720.575 844.12 715.937C847.288 710.576 848.79 705.509 851.018 700.657C851.662 698.485 853.031 696.528 854.4 694.572C855.769 692.615 857.138 690.658 859.233 688.917C860.602 686.96 862.696 685.218 864.79 683.476C865.73 682.968 866.884 681.735 867.824 681.226C873.195 684.394 879.506 687.053 884.877 690.221C884.662 690.945 884.958 692.608 884.743 693.332C884.314 694.779 884.395 697.166 883.751 699.338C884.047 701.001 883.403 703.172 883.698 704.835C883.941 711.995 884.399 718.432 885.367 725.807C887.518 739.833 891.549 752.842 895.579 765.851C902.915 791.653 907.861 817.534 914.042 844.569C920.438 870.881 922.78 897.565 923.456 924.543C923.408 951.305 916.404 977.581 912.516 1003.99C918.069 977.287 926.523 951.442 927.511 924.17C928.499 896.898 927.097 869.705 921.641 842.885C916.91 816.28 913.118 789.166 906.722 762.855C903.417 750.061 900.326 736.543 899.196 724.395C898.738 717.959 898.495 710.798 898.548 705.301C898.252 703.638 898.681 702.19 899.111 700.743C899.325 700.019 899.54 699.295 899.03 698.356L959.696 730.523L1243.88 884.104L1256.98 861.212L915.11 678.71Z" fill="black"/>
</svg>
